<mxfile host="app.diagrams.net" modified="2023-05-21T07:37:27.906Z" agent="Mozilla/5.0 (Macintosh; Intel Mac OS X 10_15_7) AppleWebKit/537.36 (KHTML, like Gecko) Chrome/113.0.0.0 Safari/537.36" etag="ejvF9MIqRthshOQD93rE" version="21.3.2" type="device">
  <diagram name="Page-1" id="RR8BZvh3TAiUtwOvaZK5">
    <mxGraphModel dx="954" dy="648" grid="1" gridSize="10" guides="1" tooltips="1" connect="1" arrows="1" fold="1" page="1" pageScale="1" pageWidth="827" pageHeight="1169" math="0" shadow="0">
      <root>
        <mxCell id="0" />
        <mxCell id="1" parent="0" />
        <mxCell id="hOIY0sYTS03fcbI9g5KX-4" style="edgeStyle=orthogonalEdgeStyle;rounded=0;orthogonalLoop=1;jettySize=auto;html=1;exitX=0.5;exitY=1;exitDx=0;exitDy=0;" edge="1" parent="1" source="hOIY0sYTS03fcbI9g5KX-2" target="hOIY0sYTS03fcbI9g5KX-5">
          <mxGeometry relative="1" as="geometry">
            <mxPoint x="380" y="100" as="targetPoint" />
          </mxGeometry>
        </mxCell>
        <mxCell id="hOIY0sYTS03fcbI9g5KX-2" value="Начало" style="rounded=1;whiteSpace=wrap;html=1;" vertex="1" parent="1">
          <mxGeometry x="320" y="40" width="120" height="30" as="geometry" />
        </mxCell>
        <mxCell id="hOIY0sYTS03fcbI9g5KX-3" value="Конец" style="rounded=1;whiteSpace=wrap;html=1;" vertex="1" parent="1">
          <mxGeometry x="320" y="880" width="120" height="30" as="geometry" />
        </mxCell>
        <mxCell id="hOIY0sYTS03fcbI9g5KX-11" style="edgeStyle=orthogonalEdgeStyle;rounded=0;orthogonalLoop=1;jettySize=auto;html=1;exitX=0.5;exitY=1;exitDx=0;exitDy=0;entryX=0.5;entryY=0;entryDx=0;entryDy=0;" edge="1" parent="1" source="hOIY0sYTS03fcbI9g5KX-5" target="hOIY0sYTS03fcbI9g5KX-7">
          <mxGeometry relative="1" as="geometry" />
        </mxCell>
        <mxCell id="hOIY0sYTS03fcbI9g5KX-5" value="arr&lt;br&gt;size" style="shape=parallelogram;perimeter=parallelogramPerimeter;whiteSpace=wrap;html=1;fixedSize=1;" vertex="1" parent="1">
          <mxGeometry x="320" y="100" width="120" height="40" as="geometry" />
        </mxCell>
        <mxCell id="hOIY0sYTS03fcbI9g5KX-28" style="edgeStyle=orthogonalEdgeStyle;rounded=0;orthogonalLoop=1;jettySize=auto;html=1;exitX=0.5;exitY=1;exitDx=0;exitDy=0;entryX=0.5;entryY=0;entryDx=0;entryDy=0;" edge="1" parent="1" source="hOIY0sYTS03fcbI9g5KX-6" target="hOIY0sYTS03fcbI9g5KX-27">
          <mxGeometry relative="1" as="geometry" />
        </mxCell>
        <mxCell id="hOIY0sYTS03fcbI9g5KX-6" value="i = 1" style="rounded=0;whiteSpace=wrap;html=1;" vertex="1" parent="1">
          <mxGeometry x="510" y="190" width="120" height="35" as="geometry" />
        </mxCell>
        <mxCell id="hOIY0sYTS03fcbI9g5KX-9" value="YES" style="edgeStyle=orthogonalEdgeStyle;rounded=0;orthogonalLoop=1;jettySize=auto;html=1;exitX=0;exitY=0.5;exitDx=0;exitDy=0;entryX=0.5;entryY=0;entryDx=0;entryDy=0;" edge="1" parent="1" source="hOIY0sYTS03fcbI9g5KX-7" target="hOIY0sYTS03fcbI9g5KX-8">
          <mxGeometry relative="1" as="geometry">
            <mxPoint x="210" y="170" as="targetPoint" />
          </mxGeometry>
        </mxCell>
        <mxCell id="hOIY0sYTS03fcbI9g5KX-23" value="NO" style="edgeStyle=orthogonalEdgeStyle;rounded=0;orthogonalLoop=1;jettySize=auto;html=1;exitX=0.5;exitY=1;exitDx=0;exitDy=0;entryX=0.5;entryY=0;entryDx=0;entryDy=0;" edge="1" parent="1" source="hOIY0sYTS03fcbI9g5KX-7" target="hOIY0sYTS03fcbI9g5KX-21">
          <mxGeometry relative="1" as="geometry" />
        </mxCell>
        <mxCell id="hOIY0sYTS03fcbI9g5KX-7" value="size == 0" style="rhombus;whiteSpace=wrap;html=1;" vertex="1" parent="1">
          <mxGeometry x="340" y="170" width="80" height="80" as="geometry" />
        </mxCell>
        <mxCell id="hOIY0sYTS03fcbI9g5KX-48" style="edgeStyle=orthogonalEdgeStyle;rounded=0;orthogonalLoop=1;jettySize=auto;html=1;exitX=0.5;exitY=1;exitDx=0;exitDy=0;entryX=0.5;entryY=0;entryDx=0;entryDy=0;" edge="1" parent="1" source="hOIY0sYTS03fcbI9g5KX-8" target="hOIY0sYTS03fcbI9g5KX-3">
          <mxGeometry relative="1" as="geometry">
            <Array as="points">
              <mxPoint x="240" y="860" />
              <mxPoint x="380" y="860" />
            </Array>
          </mxGeometry>
        </mxCell>
        <mxCell id="hOIY0sYTS03fcbI9g5KX-8" value="Array is empty" style="shape=parallelogram;perimeter=parallelogramPerimeter;whiteSpace=wrap;html=1;fixedSize=1;" vertex="1" parent="1">
          <mxGeometry x="180" y="800" width="120" height="40" as="geometry" />
        </mxCell>
        <mxCell id="hOIY0sYTS03fcbI9g5KX-20" value="NO" style="edgeStyle=orthogonalEdgeStyle;rounded=0;orthogonalLoop=1;jettySize=auto;html=1;exitX=1;exitY=0.5;exitDx=0;exitDy=0;entryX=0.5;entryY=0;entryDx=0;entryDy=0;" edge="1" parent="1" source="hOIY0sYTS03fcbI9g5KX-12" target="hOIY0sYTS03fcbI9g5KX-6">
          <mxGeometry relative="1" as="geometry" />
        </mxCell>
        <mxCell id="hOIY0sYTS03fcbI9g5KX-46" value="YES" style="edgeStyle=orthogonalEdgeStyle;rounded=0;orthogonalLoop=1;jettySize=auto;html=1;exitX=0.5;exitY=1;exitDx=0;exitDy=0;entryX=0.5;entryY=0;entryDx=0;entryDy=0;" edge="1" parent="1" source="hOIY0sYTS03fcbI9g5KX-12" target="hOIY0sYTS03fcbI9g5KX-15">
          <mxGeometry relative="1" as="geometry">
            <Array as="points">
              <mxPoint x="380" y="710" />
              <mxPoint x="380" y="710" />
            </Array>
          </mxGeometry>
        </mxCell>
        <mxCell id="hOIY0sYTS03fcbI9g5KX-12" value="size == 1" style="rhombus;whiteSpace=wrap;html=1;" vertex="1" parent="1">
          <mxGeometry x="340" y="350" width="80" height="80" as="geometry" />
        </mxCell>
        <mxCell id="hOIY0sYTS03fcbI9g5KX-25" style="edgeStyle=orthogonalEdgeStyle;rounded=0;orthogonalLoop=1;jettySize=auto;html=1;exitX=0.5;exitY=1;exitDx=0;exitDy=0;entryX=0.5;entryY=0;entryDx=0;entryDy=0;" edge="1" parent="1" source="hOIY0sYTS03fcbI9g5KX-15" target="hOIY0sYTS03fcbI9g5KX-3">
          <mxGeometry relative="1" as="geometry" />
        </mxCell>
        <mxCell id="hOIY0sYTS03fcbI9g5KX-15" value="i_min&lt;br&gt;i_max" style="shape=parallelogram;perimeter=parallelogramPerimeter;whiteSpace=wrap;html=1;fixedSize=1;" vertex="1" parent="1">
          <mxGeometry x="320" y="800" width="120" height="40" as="geometry" />
        </mxCell>
        <mxCell id="hOIY0sYTS03fcbI9g5KX-24" style="edgeStyle=orthogonalEdgeStyle;rounded=0;orthogonalLoop=1;jettySize=auto;html=1;exitX=0.5;exitY=1;exitDx=0;exitDy=0;entryX=0.5;entryY=0;entryDx=0;entryDy=0;" edge="1" parent="1" source="hOIY0sYTS03fcbI9g5KX-21" target="hOIY0sYTS03fcbI9g5KX-12">
          <mxGeometry relative="1" as="geometry" />
        </mxCell>
        <mxCell id="hOIY0sYTS03fcbI9g5KX-21" value="&lt;span style=&quot;color: rgb(240, 240, 240); font-family: Helvetica; font-size: 12px; font-style: normal; font-variant-ligatures: normal; font-variant-caps: normal; font-weight: 400; letter-spacing: normal; orphans: 2; text-align: center; text-indent: 0px; text-transform: none; widows: 2; word-spacing: 0px; -webkit-text-stroke-width: 0px; background-color: rgb(42, 37, 47); text-decoration-thickness: initial; text-decoration-style: initial; text-decoration-color: initial; float: none; display: inline !important;&quot;&gt;i_min = 0&lt;/span&gt;&lt;br style=&quot;border-color: rgb(0, 0, 0); color: rgb(240, 240, 240); font-family: Helvetica; font-size: 12px; font-style: normal; font-variant-ligatures: normal; font-variant-caps: normal; font-weight: 400; letter-spacing: normal; orphans: 2; text-align: center; text-indent: 0px; text-transform: none; widows: 2; word-spacing: 0px; -webkit-text-stroke-width: 0px; background-color: rgb(42, 37, 47); text-decoration-thickness: initial; text-decoration-style: initial; text-decoration-color: initial;&quot;&gt;&lt;span style=&quot;color: rgb(240, 240, 240); font-family: Helvetica; font-size: 12px; font-style: normal; font-variant-ligatures: normal; font-variant-caps: normal; font-weight: 400; letter-spacing: normal; orphans: 2; text-align: center; text-indent: 0px; text-transform: none; widows: 2; word-spacing: 0px; -webkit-text-stroke-width: 0px; background-color: rgb(42, 37, 47); text-decoration-thickness: initial; text-decoration-style: initial; text-decoration-color: initial; float: none; display: inline !important;&quot;&gt;i_max = 0&lt;/span&gt;" style="rounded=0;whiteSpace=wrap;html=1;" vertex="1" parent="1">
          <mxGeometry x="320" y="280" width="120" height="45" as="geometry" />
        </mxCell>
        <mxCell id="hOIY0sYTS03fcbI9g5KX-30" value="YES" style="edgeStyle=orthogonalEdgeStyle;rounded=0;orthogonalLoop=1;jettySize=auto;html=1;exitX=0.5;exitY=1;exitDx=0;exitDy=0;entryX=0.5;entryY=0;entryDx=0;entryDy=0;" edge="1" parent="1" source="hOIY0sYTS03fcbI9g5KX-27" target="hOIY0sYTS03fcbI9g5KX-29">
          <mxGeometry relative="1" as="geometry" />
        </mxCell>
        <mxCell id="hOIY0sYTS03fcbI9g5KX-37" value="NO" style="edgeStyle=orthogonalEdgeStyle;rounded=0;orthogonalLoop=1;jettySize=auto;html=1;exitX=1;exitY=0.5;exitDx=0;exitDy=0;entryX=0.5;entryY=0;entryDx=0;entryDy=0;" edge="1" parent="1" source="hOIY0sYTS03fcbI9g5KX-27" target="hOIY0sYTS03fcbI9g5KX-31">
          <mxGeometry relative="1" as="geometry">
            <Array as="points">
              <mxPoint x="650" y="303" />
              <mxPoint x="650" y="430" />
              <mxPoint x="570" y="430" />
            </Array>
          </mxGeometry>
        </mxCell>
        <mxCell id="hOIY0sYTS03fcbI9g5KX-27" value="arr[i] &amp;lt; arr[i_min]" style="rhombus;whiteSpace=wrap;html=1;" vertex="1" parent="1">
          <mxGeometry x="530" y="262.5" width="80" height="80" as="geometry" />
        </mxCell>
        <mxCell id="hOIY0sYTS03fcbI9g5KX-33" style="edgeStyle=orthogonalEdgeStyle;rounded=0;orthogonalLoop=1;jettySize=auto;html=1;exitX=0.5;exitY=1;exitDx=0;exitDy=0;entryX=0.5;entryY=0;entryDx=0;entryDy=0;" edge="1" parent="1" source="hOIY0sYTS03fcbI9g5KX-29" target="hOIY0sYTS03fcbI9g5KX-31">
          <mxGeometry relative="1" as="geometry" />
        </mxCell>
        <mxCell id="hOIY0sYTS03fcbI9g5KX-29" value="i_min = i" style="rounded=0;whiteSpace=wrap;html=1;" vertex="1" parent="1">
          <mxGeometry x="510" y="380" width="120" height="30" as="geometry" />
        </mxCell>
        <mxCell id="hOIY0sYTS03fcbI9g5KX-36" value="YES" style="edgeStyle=orthogonalEdgeStyle;rounded=0;orthogonalLoop=1;jettySize=auto;html=1;exitX=0.5;exitY=1;exitDx=0;exitDy=0;entryX=0.5;entryY=0;entryDx=0;entryDy=0;" edge="1" parent="1" source="hOIY0sYTS03fcbI9g5KX-31" target="hOIY0sYTS03fcbI9g5KX-34">
          <mxGeometry relative="1" as="geometry" />
        </mxCell>
        <mxCell id="hOIY0sYTS03fcbI9g5KX-44" value="NO" style="edgeStyle=orthogonalEdgeStyle;rounded=0;orthogonalLoop=1;jettySize=auto;html=1;exitX=1;exitY=0.5;exitDx=0;exitDy=0;entryX=0.5;entryY=0;entryDx=0;entryDy=0;" edge="1" parent="1" source="hOIY0sYTS03fcbI9g5KX-31" target="hOIY0sYTS03fcbI9g5KX-40">
          <mxGeometry relative="1" as="geometry">
            <Array as="points">
              <mxPoint x="660" y="480" />
              <mxPoint x="660" y="600" />
              <mxPoint x="570" y="600" />
            </Array>
          </mxGeometry>
        </mxCell>
        <mxCell id="hOIY0sYTS03fcbI9g5KX-31" value="&lt;span style=&quot;color: rgb(240, 240, 240); font-family: Helvetica; font-size: 12px; font-style: normal; font-variant-ligatures: normal; font-variant-caps: normal; font-weight: 400; letter-spacing: normal; orphans: 2; text-align: center; text-indent: 0px; text-transform: none; widows: 2; word-spacing: 0px; -webkit-text-stroke-width: 0px; background-color: rgb(42, 37, 47); text-decoration-thickness: initial; text-decoration-style: initial; text-decoration-color: initial; float: none; display: inline !important;&quot;&gt;arr[i] &amp;gt; arr[i_max]&lt;/span&gt;" style="rhombus;whiteSpace=wrap;html=1;" vertex="1" parent="1">
          <mxGeometry x="530" y="440" width="80" height="80" as="geometry" />
        </mxCell>
        <mxCell id="hOIY0sYTS03fcbI9g5KX-41" style="edgeStyle=orthogonalEdgeStyle;rounded=0;orthogonalLoop=1;jettySize=auto;html=1;exitX=0.5;exitY=1;exitDx=0;exitDy=0;entryX=0.5;entryY=0;entryDx=0;entryDy=0;" edge="1" parent="1" source="hOIY0sYTS03fcbI9g5KX-34" target="hOIY0sYTS03fcbI9g5KX-40">
          <mxGeometry relative="1" as="geometry" />
        </mxCell>
        <mxCell id="hOIY0sYTS03fcbI9g5KX-34" value="i_max = i" style="rounded=0;whiteSpace=wrap;html=1;" vertex="1" parent="1">
          <mxGeometry x="510" y="555" width="120" height="30" as="geometry" />
        </mxCell>
        <mxCell id="hOIY0sYTS03fcbI9g5KX-43" value="YES" style="edgeStyle=orthogonalEdgeStyle;rounded=0;orthogonalLoop=1;jettySize=auto;html=1;exitX=0;exitY=0.5;exitDx=0;exitDy=0;entryX=0.5;entryY=0;entryDx=0;entryDy=0;" edge="1" parent="1" source="hOIY0sYTS03fcbI9g5KX-38" target="hOIY0sYTS03fcbI9g5KX-27">
          <mxGeometry relative="1" as="geometry">
            <Array as="points">
              <mxPoint x="490" y="710" />
              <mxPoint x="490" y="243" />
              <mxPoint x="570" y="243" />
            </Array>
          </mxGeometry>
        </mxCell>
        <mxCell id="hOIY0sYTS03fcbI9g5KX-45" value="NO" style="edgeStyle=orthogonalEdgeStyle;rounded=0;orthogonalLoop=1;jettySize=auto;html=1;exitX=1;exitY=0.5;exitDx=0;exitDy=0;entryX=0.5;entryY=0;entryDx=0;entryDy=0;" edge="1" parent="1" source="hOIY0sYTS03fcbI9g5KX-38" target="hOIY0sYTS03fcbI9g5KX-15">
          <mxGeometry relative="1" as="geometry" />
        </mxCell>
        <mxCell id="hOIY0sYTS03fcbI9g5KX-38" value="i &amp;lt; size" style="rhombus;whiteSpace=wrap;html=1;" vertex="1" parent="1">
          <mxGeometry x="530" y="670" width="80" height="80" as="geometry" />
        </mxCell>
        <mxCell id="hOIY0sYTS03fcbI9g5KX-42" style="edgeStyle=orthogonalEdgeStyle;rounded=0;orthogonalLoop=1;jettySize=auto;html=1;exitX=0.5;exitY=1;exitDx=0;exitDy=0;entryX=0.5;entryY=0;entryDx=0;entryDy=0;" edge="1" parent="1" source="hOIY0sYTS03fcbI9g5KX-40" target="hOIY0sYTS03fcbI9g5KX-38">
          <mxGeometry relative="1" as="geometry" />
        </mxCell>
        <mxCell id="hOIY0sYTS03fcbI9g5KX-40" value="i = i + 1" style="rounded=0;whiteSpace=wrap;html=1;" vertex="1" parent="1">
          <mxGeometry x="510" y="610" width="120" height="30" as="geometry" />
        </mxCell>
      </root>
    </mxGraphModel>
  </diagram>
</mxfile>
